#N canvas 753 88 526 377 10;
#X obj 62 210 sendOSC;
#X msg 84 161 connect 127.0.0.1 9999;
#X msg 64 117 send /print test;
#X obj -5 62 tgl 15 0 empty empty empty 17 7 0 10 -262144 -1 -1 0 1
;
#X obj -8 8 tgl 15 0 empty empty empty 17 7 0 10 -262144 -1 -1 0 1
;
#X obj -9 29 metro 100;
#X msg -6 88 send /matrix/one 0 0 \$1;
#X msg 227 101 send /matrix/preset 1 1;
#X obj 271 129 adc~;
#X obj 275 210 dbtorms;
#X floatatom 276 233 10 0 0 0 - - -;
#X msg 278 309 send /amp \$1;
#X obj 275 179 env~ 1024;
#X obj 398 231 fiddle~;
#X floatatom 401 258 5 0 0 0 - - -;
#X obj 400 287 / 127;
#X obj 409 127 dac~;
#X obj 408 82 phasor~;
#X floatatom 405 46 5 0 0 0 - - -;
#X connect 1 0 0 0;
#X connect 2 0 0 0;
#X connect 3 0 6 0;
#X connect 4 0 5 0;
#X connect 5 0 3 0;
#X connect 6 0 0 0;
#X connect 7 0 0 0;
#X connect 9 0 10 0;
#X connect 10 0 11 0;
#X connect 11 0 0 0;
#X connect 13 2 14 0;
#X connect 14 0 15 0;
#X connect 15 0 10 0;
#X connect 17 0 12 0;
#X connect 17 0 16 0;
#X connect 17 0 13 0;
#X connect 18 0 17 0;
